<svg width="28" height="28" viewBox="0 0 28 28" fill="none" xmlns="http://www.w3.org/2000/svg">
<g id="Frame 2087325335">
<rect width="28" height="28" rx="14" fill="white"/>
<rect width="28" height="28" rx="14" fill="url(#paint0_linear_776_94406)"/>
<path id="phone" d="M10.5219 7.10521C10.1463 6.35073 9.57006 6.41753 8.98794 6.41753C7.94758 6.41753 6.32538 7.66368 6.32538 9.9829C6.32538 11.8836 7.16293 13.9643 9.98522 17.0767C12.7089 20.0804 16.2877 21.6343 19.2588 21.5814C22.2299 21.5285 22.8411 18.9718 22.8411 18.1084C22.8411 17.7257 22.6037 17.5347 22.4401 17.4828C21.4276 16.9969 19.5603 16.0916 19.1354 15.9215C18.7105 15.7514 18.4886 15.9814 18.3507 16.1066C17.9654 16.4738 17.2016 17.5559 16.9401 17.7993C16.6786 18.0427 16.2887 17.9195 16.1265 17.8275C15.5294 17.5879 13.9106 16.8679 12.6203 15.617C11.0244 14.07 10.9308 13.5378 10.6301 13.064C10.3896 12.685 10.5661 12.4525 10.6542 12.3509C10.998 11.9541 11.4728 11.3416 11.6857 11.0372C11.8986 10.7329 11.7296 10.2707 11.6281 9.9829C11.192 8.74503 10.8224 7.70879 10.5219 7.10521Z" fill="white"/>
</g>
<defs>
<linearGradient id="paint0_linear_776_94406" x1="26.25" y1="3.5" x2="-6.78003e-07" y2="28" gradientUnits="userSpaceOnUse">
<stop stop-color="#5BD066"/>
<stop offset="1" stop-color="#27B43E"/>
</linearGradient>
</defs>
</svg>
