<svg xmlns="http://www.w3.org/2000/svg" width="28" height="28" viewBox="0 0 28 28" fill="none">
  <path d="M7.39447 17.319C7.53121 16.1868 7.99554 15.5529 8.87057 14.9031C10.1226 14.0231 11.6865 14.5209 11.6865 14.5209V11.5676C12.0667 11.5579 12.4471 11.5804 12.8231 11.635V15.4355C12.8231 15.4355 11.2597 14.9377 10.0077 15.8182C9.13312 16.4676 8.66784 17.1019 8.53157 18.2341C8.5273 18.8489 8.64267 19.6525 9.17396 20.3473C9.0426 20.28 8.90871 20.2032 8.77229 20.1171C7.60195 19.3312 7.38877 18.1522 7.39447 17.319ZM19.2806 6.10704C18.4194 5.16327 18.0937 4.21039 17.9759 3.54102H19.0594C19.0594 3.54102 18.8434 5.29614 20.4178 7.02214L20.4396 7.04535C20.0153 6.77844 19.6261 6.46339 19.2806 6.10704ZM24.4999 8.78273V12.5068C24.4999 12.5068 23.1174 12.4527 22.0942 12.1924C20.6656 11.8284 19.7474 11.27 19.7474 11.27C19.7474 11.27 19.113 10.8719 19.0618 10.8441V18.5344C19.0618 18.9626 18.9445 20.032 18.587 20.9239C18.1203 22.0906 17.4 22.8565 17.2676 23.013C17.2676 23.013 16.3916 24.0483 14.8462 24.7454C13.4532 25.3743 12.2301 25.3583 11.8645 25.3743C11.8645 25.3743 9.75034 25.458 7.84789 24.2216C7.4365 23.9491 7.05248 23.6405 6.70081 23.2997L6.71031 23.3065C8.61324 24.5429 10.727 24.4592 10.727 24.4592C11.093 24.4432 12.3161 24.4592 13.7086 23.8303C15.2526 23.1332 16.13 22.0979 16.13 22.0979C16.261 21.9414 16.9846 21.1755 17.4494 20.0083C17.806 19.1169 17.9242 18.0471 17.9242 17.6189V9.92945C17.9755 9.95766 18.6093 10.3558 18.6093 10.3558C18.6093 10.3558 19.528 10.9146 20.9566 11.2782C21.9803 11.5385 23.3623 11.5927 23.3623 11.5927V8.67442C23.8352 8.78045 24.2383 8.80912 24.4999 8.78273Z" fill="#EE1D52"/>
  <path d="M23.3629 8.67442V11.5917C23.3629 11.5917 21.9808 11.5376 20.9572 11.2773C19.5285 10.9133 18.6098 10.3549 18.6098 10.3549C18.6098 10.3549 17.976 9.95675 17.9247 9.92854V17.6198C17.9247 18.048 17.8074 19.1178 17.4499 20.0092C16.9832 21.1764 16.263 21.9423 16.1305 22.0988C16.1305 22.0988 15.2541 23.1341 13.7091 23.8312C12.3166 24.4601 11.0936 24.4441 10.7275 24.4601C10.7275 24.4601 8.61376 24.5438 6.71083 23.3074L6.70134 23.3006C6.50043 23.1061 6.31132 22.9007 6.13492 22.6854C5.52768 21.945 5.15545 21.0695 5.06192 20.8197C5.06175 20.8186 5.06175 20.8176 5.06192 20.8165C4.91141 20.3824 4.5952 19.3399 4.63841 18.3301C4.71485 16.5486 5.34156 15.4551 5.50726 15.1812C5.9461 14.4341 6.51687 13.7658 7.19416 13.2058C7.79183 12.7226 8.46927 12.3381 9.19869 12.0682C9.98723 11.7512 10.8316 11.5813 11.6866 11.5676V14.5209C11.6866 14.5209 10.1226 14.0249 8.87109 14.9031C7.99607 15.5529 7.53173 16.1868 7.395 17.319C7.3893 18.1522 7.60248 19.3312 8.77186 20.1175C8.90829 20.204 9.04217 20.2808 9.17353 20.3478C9.37782 20.6134 9.62647 20.8447 9.90944 21.0326C11.0518 21.7557 12.0089 21.8062 13.2329 21.3366C14.0491 21.0226 14.6634 20.315 14.9483 19.531C15.1273 19.0413 15.1249 18.5485 15.1249 18.0389V3.54102H17.9736C18.0914 4.21039 18.4171 5.16327 19.2783 6.10704C19.6238 6.46339 20.0129 6.77844 20.4373 7.04535C20.5626 7.17504 21.2036 7.8162 22.0264 8.20982C22.4518 8.41328 22.9003 8.56917 23.3629 8.67442Z" fill="black"/>
  <path d="M3.92811 19.9121V19.9144L3.99879 20.106C3.99067 20.0837 3.96441 20.0159 3.92811 19.9121Z" fill="#69C9D0"/>
  <path d="M9.19871 12.0676C8.46929 12.3375 7.79185 12.722 7.19418 13.2052C6.51667 13.7664 5.94605 14.4362 5.50776 15.1847C5.34206 15.4577 4.71535 16.5521 4.63891 18.3336C4.5957 19.3433 4.91191 20.3859 5.06241 20.82C5.06225 20.821 5.06225 20.8221 5.06241 20.8232C5.15737 21.0707 5.52817 21.9462 6.13542 22.6889C6.31181 22.9041 6.50093 23.1096 6.70183 23.3041C6.05812 22.8774 5.48403 22.3615 4.99832 21.7733C4.39629 21.0393 4.02501 20.1729 3.92816 19.9172C3.92804 19.9153 3.92804 19.9135 3.92816 19.9117V19.9085C3.77718 19.4749 3.46002 18.4319 3.50418 17.4208C3.58062 15.6392 4.20733 14.5458 4.37303 14.2718C4.81119 13.5233 5.38183 12.8535 6.05945 12.2924C6.657 11.809 7.33447 11.4245 8.06398 11.1547C8.51902 10.9738 8.99305 10.8403 9.47789 10.7566C10.2086 10.6343 10.9548 10.6237 11.6889 10.7252V11.567C10.8332 11.5804 9.98799 11.7503 9.19871 12.0676Z" fill="#69C9D0"/>
  <path d="M17.976 3.54056H15.1273V18.0389C15.1273 18.5485 15.1273 19.04 14.9507 19.531C14.663 20.3146 14.051 21.0222 13.2353 21.3362C12.0109 21.8076 11.0537 21.7553 9.91185 21.0322C9.62839 20.8451 9.3791 20.6145 9.17403 20.3496C10.1469 20.847 11.0176 20.8383 12.0963 20.4233C12.9115 20.1093 13.5245 19.4017 13.8112 18.6177C13.9907 18.1281 13.9883 17.6352 13.9883 17.126V2.625H17.9219C17.9219 2.625 17.8777 2.9854 17.976 3.54056ZM23.3629 7.86716V8.67397C22.9011 8.56855 22.4535 8.41266 22.0288 8.20936C21.206 7.81574 20.565 7.17458 20.4397 7.04489C20.5851 7.13641 20.736 7.21968 20.8917 7.29426C21.892 7.77297 22.8772 7.91585 23.3629 7.86716Z" fill="#69C9D0"/>
</svg>