<svg xmlns="http://www.w3.org/2000/svg" width="28" height="28" viewBox="0 0 28 28" fill="none">
<rect x="1.75" y="1.75" width="24.5" height="24.5" rx="12.25" fill="#1275B1"/>
<path d="M11.0412 8.48063C11.0412 9.29836 10.3325 9.96126 9.45812 9.96126C8.58379 9.96126 7.875 9.29836 7.875 8.48063C7.875 7.6629 8.58379 7 9.45812 7C10.3325 7 11.0412 7.6629 11.0412 8.48063Z" fill="white"/>
<path d="M8.09149 11.0496H10.7977V19.25H8.09149V11.0496Z" fill="white"/>
<path d="M15.1546 11.0496H12.4485V19.25H15.1546C15.1546 19.25 15.1546 16.6684 15.1546 15.0542C15.1546 14.0854 15.4854 13.1123 16.8054 13.1123C18.2971 13.1123 18.2882 14.3802 18.2812 15.3625C18.2721 16.6464 18.2938 17.9566 18.2938 19.25H21V14.922C20.9771 12.1585 20.257 10.8851 17.8879 10.8851C16.481 10.8851 15.6089 11.5238 15.1546 12.1017V11.0496Z" fill="white"/>
</svg>