<svg width="32" height="32" viewBox="0 0 32 32" fill="none" xmlns="http://www.w3.org/2000/svg">
<g id="Frame 2087325336">
<rect width="32" height="32" rx="16" fill="white"/>
<g id="gmail">
<path id="Vector" d="M22.2859 8.56152L16.0655 13.416L9.70295 8.56152V8.56284L9.71064 8.5694V15.367L15.9938 20.3264L22.2859 15.5585V8.56152Z" fill="#EA4335"/>
<path id="Vector_2" d="M23.9199 7.37995L22.2863 8.56077V15.5578L27.4266 11.6112V9.23384C27.4266 9.23384 26.8026 5.83833 23.9199 7.37995Z" fill="#FBBC05"/>
<path id="Vector_3" d="M22.2863 15.5598V24.6351H26.2261C26.2261 24.6351 27.3471 24.5196 27.4279 23.2417V11.6133L22.2863 15.5598Z" fill="#34A853"/>
<path id="Vector_4" d="M9.71093 24.6406V15.3659L9.70295 15.3594L9.71093 24.6406Z" fill="#C5221F"/>
<path id="Vector_5" d="M9.70298 8.56214L8.07838 7.38789C5.19561 5.84627 4.57037 9.24045 4.57037 9.24045V11.6178L9.70298 15.3597V8.56214Z" fill="#C5221F"/>
<path id="Vector_6" d="M9.70295 8.5625V15.3601L9.71093 15.3666V8.56906L9.70295 8.5625Z" fill="#C5221F"/>
<path id="Vector_7" d="M4.57037 11.6182V23.2466C4.64981 24.5258 5.77217 24.6399 5.77217 24.6399H9.71195L9.70298 15.3587L4.57037 11.6182Z" fill="#4285F4"/>
</g>
</g>
</svg>
