<svg width="24" height="25" viewBox="0 0 24 25" fill="none" xmlns="http://www.w3.org/2000/svg">
<g clip-path="url(#clip0_86_16758)">
<path d="M2 9.49401C1.99947 8.70621 2.15435 7.92605 2.45577 7.19819C2.75718 6.47034 3.19921 5.80909 3.75655 5.25231C4.31388 4.69553 4.97558 4.25416 5.70373 3.95348C6.43189 3.65279 7.21221 3.49869 8 3.50001H16C19.313 3.50001 22 6.19501 22 9.49401V21.5H8C4.687 21.5 2 18.805 2 15.506V9.49401ZM14 11.5V13.5H16V11.5H14ZM8 11.5V13.5H10V11.5H8Z" fill="#AFBED3"/>
</g>
<defs>
<clipPath id="clip0_86_16758">
<rect width="24" height="24" fill="white" transform="translate(0 0.5)"/>
</clipPath>
</defs>
</svg>
