<svg width="18" height="16" viewBox="0 0 18 16" fill="none" xmlns="http://www.w3.org/2000/svg">
<path d="M10.1568 8.62153V12.9989L11.5895 11.5662L12.6986 12.6752L9.37302 16L6.04746 12.6752L7.15651 11.5662L8.58925 12.9989V8.62153H10.1568ZM9.37302 1.74124e-08C10.7188 6.40892e-05 12.0175 0.494652 13.0224 1.38973C14.0273 2.2848 14.6683 3.51795 14.8234 4.85471C15.7986 5.12066 16.6494 5.72086 17.227 6.55043C17.8046 7.38 18.0723 8.38616 17.9833 9.39308C17.8943 10.4 17.4543 11.3436 16.7402 12.059C16.026 12.7744 15.0832 13.2162 14.0765 13.3069V11.7284C14.4371 11.6769 14.7839 11.5541 15.0966 11.3671C15.4093 11.1801 15.6816 10.9327 15.8976 10.6393C16.1136 10.3459 16.2691 10.0124 16.3548 9.65835C16.4405 9.30425 16.4549 8.93662 16.397 8.57691C16.3391 8.21721 16.2102 7.87264 16.0177 7.56332C15.8252 7.254 15.573 6.98612 15.2758 6.77533C14.9786 6.56453 14.6425 6.41504 14.2869 6.33558C13.9314 6.25612 13.5635 6.24829 13.2049 6.31253C13.3277 5.74107 13.321 5.14938 13.1855 4.58082C13.0499 4.01225 12.7889 3.48121 12.4216 3.02657C12.0542 2.57194 11.5899 2.20524 11.0624 1.95332C10.535 1.70141 9.95791 1.57066 9.37342 1.57066C8.78892 1.57066 8.21183 1.70141 7.6844 1.95332C7.15698 2.20524 6.69259 2.57194 6.32524 3.02657C5.95789 3.48121 5.69689 4.01225 5.56135 4.58082C5.42582 5.14938 5.41918 5.74107 5.54193 6.31253C4.82686 6.17825 4.08772 6.33352 3.48714 6.7442C2.88655 7.15489 2.47371 7.78733 2.33942 8.5024C2.20514 9.21747 2.36041 9.9566 2.77109 10.5572C3.18177 11.1578 3.81422 11.5706 4.52929 11.7049L4.67037 11.7284V13.3069C3.66357 13.2163 2.72065 12.7747 2.00642 12.0593C1.29219 11.344 0.85207 10.4004 0.762992 9.39342C0.673913 8.38648 0.94154 7.38026 1.5191 6.55062C2.09665 5.72099 2.9474 5.12071 3.92265 4.85471C4.0776 3.51788 4.7185 2.28464 5.72344 1.38953C6.72837 0.494421 8.02725 -0.000107144 9.37302 1.74124e-08Z" fill="white"/>
</svg>
